<?xml version="1.0" encoding="UTF-8" standalone="no"?>
<!DOCTYPE svg PUBLIC "-//W3C//DTD SVG 1.1//EN"
 "http://www.w3.org/Graphics/SVG/1.1/DTD/svg11.dtd">
<!-- Generated by graphviz version 10.0.1 (20240210.2158)
 -->
<!-- Title: Tree Pages: 1 -->
<svg width="1266pt" height="462pt"
 viewBox="0.00 0.00 1266.25 461.50" xmlns="http://www.w3.org/2000/svg" xmlns:xlink="http://www.w3.org/1999/xlink">
<g id="graph0" class="graph" transform="scale(1 1) rotate(0) translate(4 457.5)">
<title>Tree</title>
<polygon fill="white" stroke="none" points="-4,4 -4,-457.5 1262.25,-457.5 1262.25,4 -4,4"/>
<!-- 0 -->
<g id="node1" class="node">
<title>0</title>
<path fill="#b1d8f5" stroke="black" d="M711.25,-453.5C711.25,-453.5 542.25,-453.5 542.25,-453.5 536.25,-453.5 530.25,-447.5 530.25,-441.5 530.25,-441.5 530.25,-375 530.25,-375 530.25,-369 536.25,-363 542.25,-363 542.25,-363 711.25,-363 711.25,-363 717.25,-363 723.25,-369 723.25,-375 723.25,-375 723.25,-441.5 723.25,-441.5 723.25,-447.5 717.25,-453.5 711.25,-453.5"/>
<text text-anchor="start" x="538.25" y="-436.2" font-family="Helvetica,sans-Serif" font-size="14.00">arcstyle_ONE&#45;STORY ≤ 0.5</text>
<text text-anchor="start" x="593.75" y="-419.7" font-family="Helvetica,sans-Serif" font-size="14.00">gini = 0.47</text>
<text text-anchor="start" x="571.25" y="-403.2" font-family="Helvetica,sans-Serif" font-size="14.00">samples = 15122</text>
<text text-anchor="start" x="561.88" y="-386.7" font-family="Helvetica,sans-Serif" font-size="14.00">value = [5710, 9412]</text>
<text text-anchor="start" x="562.25" y="-370.2" font-family="Helvetica,sans-Serif" font-size="14.00">class = Before 1980</text>
</g>
<!-- 1 -->
<g id="node2" class="node">
<title>1</title>
<path fill="#f9e2d2" stroke="black" d="M528.62,-327C528.62,-327 406.88,-327 406.88,-327 400.88,-327 394.88,-321 394.88,-315 394.88,-315 394.88,-248.5 394.88,-248.5 394.88,-242.5 400.88,-236.5 406.88,-236.5 406.88,-236.5 528.62,-236.5 528.62,-236.5 534.62,-236.5 540.62,-242.5 540.62,-248.5 540.62,-248.5 540.62,-315 540.62,-315 540.62,-321 534.62,-327 528.62,-327"/>
<text text-anchor="start" x="413.75" y="-309.7" font-family="Helvetica,sans-Serif" font-size="14.00">gartype_Att ≤ 0.5</text>
<text text-anchor="start" x="430.62" y="-293.2" font-family="Helvetica,sans-Serif" font-size="14.00">gini = 0.492</text>
<text text-anchor="start" x="416.38" y="-276.7" font-family="Helvetica,sans-Serif" font-size="14.00">samples = 9442</text>
<text text-anchor="start" x="402.88" y="-260.2" font-family="Helvetica,sans-Serif" font-size="14.00">value = [5329, 4113]</text>
<text text-anchor="start" x="409.62" y="-243.7" font-family="Helvetica,sans-Serif" font-size="14.00">class = After 1980</text>
</g>
<!-- 0&#45;&gt;1 -->
<g id="edge1" class="edge">
<title>0&#45;&gt;1</title>
<path fill="none" stroke="black" d="M569.8,-362.65C558.15,-353.54 545.8,-343.87 533.87,-334.52"/>
<polygon fill="black" stroke="black" points="536.06,-331.8 526.03,-328.39 531.75,-337.31 536.06,-331.8"/>
<text text-anchor="middle" x="527.86" y="-347.22" font-family="Helvetica,sans-Serif" font-size="14.00">True</text>
</g>
<!-- 8 -->
<g id="node9" class="node">
<title>8</title>
<path fill="#47a4e7" stroke="black" d="M847.25,-327C847.25,-327 726.25,-327 726.25,-327 720.25,-327 714.25,-321 714.25,-315 714.25,-315 714.25,-248.5 714.25,-248.5 714.25,-242.5 720.25,-236.5 726.25,-236.5 726.25,-236.5 847.25,-236.5 847.25,-236.5 853.25,-236.5 859.25,-242.5 859.25,-248.5 859.25,-248.5 859.25,-315 859.25,-315 859.25,-321 853.25,-327 847.25,-327"/>
<text text-anchor="start" x="744" y="-309.7" font-family="Helvetica,sans-Serif" font-size="14.00">status_I ≤ 0.5</text>
<text text-anchor="start" x="749.62" y="-293.2" font-family="Helvetica,sans-Serif" font-size="14.00">gini = 0.125</text>
<text text-anchor="start" x="735.38" y="-276.7" font-family="Helvetica,sans-Serif" font-size="14.00">samples = 5680</text>
<text text-anchor="start" x="726" y="-260.2" font-family="Helvetica,sans-Serif" font-size="14.00">value = [381, 5299]</text>
<text text-anchor="start" x="722.25" y="-243.7" font-family="Helvetica,sans-Serif" font-size="14.00">class = Before 1980</text>
</g>
<!-- 0&#45;&gt;8 -->
<g id="edge8" class="edge">
<title>0&#45;&gt;8</title>
<path fill="none" stroke="black" d="M684.06,-362.65C695.78,-353.54 708.21,-343.87 720.22,-334.52"/>
<polygon fill="black" stroke="black" points="722.36,-337.29 728.11,-328.38 718.06,-331.76 722.36,-337.29"/>
<text text-anchor="middle" x="726.21" y="-347.21" font-family="Helvetica,sans-Serif" font-size="14.00">False</text>
</g>
<!-- 2 -->
<g id="node3" class="node">
<title>2</title>
<path fill="#b9dcf6" stroke="black" d="M288.62,-200.5C288.62,-200.5 166.88,-200.5 166.88,-200.5 160.88,-200.5 154.88,-194.5 154.88,-188.5 154.88,-188.5 154.88,-122 154.88,-122 154.88,-116 160.88,-110 166.88,-110 166.88,-110 288.62,-110 288.62,-110 294.62,-110 300.62,-116 300.62,-122 300.62,-122 300.62,-188.5 300.62,-188.5 300.62,-194.5 294.62,-200.5 288.62,-200.5"/>
<text text-anchor="start" x="180.88" y="-183.2" font-family="Helvetica,sans-Serif" font-size="14.00">quality_C ≤ 0.5</text>
<text text-anchor="start" x="190.62" y="-166.7" font-family="Helvetica,sans-Serif" font-size="14.00">gini = 0.477</text>
<text text-anchor="start" x="176.38" y="-150.2" font-family="Helvetica,sans-Serif" font-size="14.00">samples = 5652</text>
<text text-anchor="start" x="162.88" y="-133.7" font-family="Helvetica,sans-Serif" font-size="14.00">value = [2219, 3433]</text>
<text text-anchor="start" x="163.25" y="-117.2" font-family="Helvetica,sans-Serif" font-size="14.00">class = Before 1980</text>
</g>
<!-- 1&#45;&gt;2 -->
<g id="edge2" class="edge">
<title>1&#45;&gt;2</title>
<path fill="none" stroke="black" d="M394.44,-242.72C368.04,-229.03 338.07,-213.48 310.9,-199.38"/>
<polygon fill="black" stroke="black" points="312.86,-196.46 302.37,-194.96 309.63,-202.67 312.86,-196.46"/>
</g>
<!-- 5 -->
<g id="node6" class="node">
<title>5</title>
<path fill="#eb9d64" stroke="black" d="M524.5,-200.5C524.5,-200.5 411,-200.5 411,-200.5 405,-200.5 399,-194.5 399,-188.5 399,-188.5 399,-122 399,-122 399,-116 405,-110 411,-110 411,-110 524.5,-110 524.5,-110 530.5,-110 536.5,-116 536.5,-122 536.5,-122 536.5,-188.5 536.5,-188.5 536.5,-194.5 530.5,-200.5 524.5,-200.5"/>
<text text-anchor="start" x="428.75" y="-183.2" font-family="Helvetica,sans-Serif" font-size="14.00">stories ≤ 1.5</text>
<text text-anchor="start" x="430.62" y="-166.7" font-family="Helvetica,sans-Serif" font-size="14.00">gini = 0.294</text>
<text text-anchor="start" x="416.38" y="-150.2" font-family="Helvetica,sans-Serif" font-size="14.00">samples = 3790</text>
<text text-anchor="start" x="407" y="-133.7" font-family="Helvetica,sans-Serif" font-size="14.00">value = [3110, 680]</text>
<text text-anchor="start" x="409.62" y="-117.2" font-family="Helvetica,sans-Serif" font-size="14.00">class = After 1980</text>
</g>
<!-- 1&#45;&gt;5 -->
<g id="edge5" class="edge">
<title>1&#45;&gt;5</title>
<path fill="none" stroke="black" d="M467.75,-236.15C467.75,-228.47 467.75,-220.39 467.75,-212.44"/>
<polygon fill="black" stroke="black" points="471.25,-212.47 467.75,-202.47 464.25,-212.47 471.25,-212.47"/>
</g>
<!-- 3 -->
<g id="node4" class="node">
<title>3</title>
<path fill="#efb388" stroke="black" d="M125.5,-74C125.5,-74 12,-74 12,-74 6,-74 0,-68 0,-62 0,-62 0,-12 0,-12 0,-6 6,0 12,0 12,0 125.5,0 125.5,0 131.5,0 137.5,-6 137.5,-12 137.5,-12 137.5,-62 137.5,-62 137.5,-68 131.5,-74 125.5,-74"/>
<text text-anchor="start" x="31.62" y="-56.7" font-family="Helvetica,sans-Serif" font-size="14.00">gini = 0.407</text>
<text text-anchor="start" x="17.38" y="-40.2" font-family="Helvetica,sans-Serif" font-size="14.00">samples = 2286</text>
<text text-anchor="start" x="8" y="-23.7" font-family="Helvetica,sans-Serif" font-size="14.00">value = [1635, 651]</text>
<text text-anchor="start" x="10.62" y="-7.2" font-family="Helvetica,sans-Serif" font-size="14.00">class = After 1980</text>
</g>
<!-- 2&#45;&gt;3 -->
<g id="edge3" class="edge">
<title>2&#45;&gt;3</title>
<path fill="none" stroke="black" d="M166.73,-109.64C153.91,-100.26 140.4,-90.39 127.65,-81.07"/>
<polygon fill="black" stroke="black" points="129.89,-78.36 119.75,-75.29 125.76,-84.01 129.89,-78.36"/>
</g>
<!-- 4 -->
<g id="node5" class="node">
<title>4</title>
<path fill="#63b2ea" stroke="black" d="M288.25,-74C288.25,-74 167.25,-74 167.25,-74 161.25,-74 155.25,-68 155.25,-62 155.25,-62 155.25,-12 155.25,-12 155.25,-6 161.25,0 167.25,0 167.25,0 288.25,0 288.25,0 294.25,0 300.25,-6 300.25,-12 300.25,-12 300.25,-62 300.25,-62 300.25,-68 294.25,-74 288.25,-74"/>
<text text-anchor="start" x="190.62" y="-56.7" font-family="Helvetica,sans-Serif" font-size="14.00">gini = 0.287</text>
<text text-anchor="start" x="176.38" y="-40.2" font-family="Helvetica,sans-Serif" font-size="14.00">samples = 3366</text>
<text text-anchor="start" x="167" y="-23.7" font-family="Helvetica,sans-Serif" font-size="14.00">value = [584, 2782]</text>
<text text-anchor="start" x="163.25" y="-7.2" font-family="Helvetica,sans-Serif" font-size="14.00">class = Before 1980</text>
</g>
<!-- 2&#45;&gt;4 -->
<g id="edge4" class="edge">
<title>2&#45;&gt;4</title>
<path fill="none" stroke="black" d="M227.75,-109.64C227.75,-101.81 227.75,-93.63 227.75,-85.72"/>
<polygon fill="black" stroke="black" points="231.25,-85.91 227.75,-75.91 224.25,-85.91 231.25,-85.91"/>
</g>
<!-- 6 -->
<g id="node7" class="node">
<title>6</title>
<path fill="#c1e0f7" stroke="black" d="M451.25,-74C451.25,-74 330.25,-74 330.25,-74 324.25,-74 318.25,-68 318.25,-62 318.25,-62 318.25,-12 318.25,-12 318.25,-6 324.25,0 330.25,0 330.25,0 451.25,0 451.25,0 457.25,0 463.25,-6 463.25,-12 463.25,-12 463.25,-62 463.25,-62 463.25,-68 457.25,-74 451.25,-74"/>
<text text-anchor="start" x="353.62" y="-56.7" font-family="Helvetica,sans-Serif" font-size="14.00">gini = 0.483</text>
<text text-anchor="start" x="343.5" y="-40.2" font-family="Helvetica,sans-Serif" font-size="14.00">samples = 585</text>
<text text-anchor="start" x="334.12" y="-23.7" font-family="Helvetica,sans-Serif" font-size="14.00">value = [238, 347]</text>
<text text-anchor="start" x="326.25" y="-7.2" font-family="Helvetica,sans-Serif" font-size="14.00">class = Before 1980</text>
</g>
<!-- 5&#45;&gt;6 -->
<g id="edge6" class="edge">
<title>5&#45;&gt;6</title>
<path fill="none" stroke="black" d="M438.2,-109.64C432.59,-101.17 426.72,-92.3 421.08,-83.8"/>
<polygon fill="black" stroke="black" points="424.13,-82.06 415.69,-75.66 418.3,-85.93 424.13,-82.06"/>
</g>
<!-- 7 -->
<g id="node8" class="node">
<title>7</title>
<path fill="#e89050" stroke="black" d="M606.5,-74C606.5,-74 493,-74 493,-74 487,-74 481,-68 481,-62 481,-62 481,-12 481,-12 481,-6 487,0 493,0 493,0 606.5,0 606.5,0 612.5,0 618.5,-6 618.5,-12 618.5,-12 618.5,-62 618.5,-62 618.5,-68 612.5,-74 606.5,-74"/>
<text text-anchor="start" x="512.62" y="-56.7" font-family="Helvetica,sans-Serif" font-size="14.00">gini = 0.186</text>
<text text-anchor="start" x="498.38" y="-40.2" font-family="Helvetica,sans-Serif" font-size="14.00">samples = 3205</text>
<text text-anchor="start" x="489" y="-23.7" font-family="Helvetica,sans-Serif" font-size="14.00">value = [2872, 333]</text>
<text text-anchor="start" x="491.62" y="-7.2" font-family="Helvetica,sans-Serif" font-size="14.00">class = After 1980</text>
</g>
<!-- 5&#45;&gt;7 -->
<g id="edge7" class="edge">
<title>5&#45;&gt;7</title>
<path fill="none" stroke="black" d="M499.22,-109.64C505.19,-101.17 511.45,-92.3 517.45,-83.8"/>
<polygon fill="black" stroke="black" points="520.3,-85.82 523.21,-75.63 514.58,-81.78 520.3,-85.82"/>
</g>
<!-- 9 -->
<g id="node10" class="node">
<title>9</title>
<path fill="#e99356" stroke="black" d="M840.88,-200.5C840.88,-200.5 732.62,-200.5 732.62,-200.5 726.62,-200.5 720.62,-194.5 720.62,-188.5 720.62,-188.5 720.62,-122 720.62,-122 720.62,-116 726.62,-110 732.62,-110 732.62,-110 840.88,-110 840.88,-110 846.88,-110 852.88,-116 852.88,-122 852.88,-122 852.88,-188.5 852.88,-188.5 852.88,-194.5 846.88,-200.5 840.88,-200.5"/>
<text text-anchor="start" x="729.38" y="-183.2" font-family="Helvetica,sans-Serif" font-size="14.00">basement ≤ 930.0</text>
<text text-anchor="start" x="749.62" y="-166.7" font-family="Helvetica,sans-Serif" font-size="14.00">gini = 0.222</text>
<text text-anchor="start" x="743.62" y="-150.2" font-family="Helvetica,sans-Serif" font-size="14.00">samples = 63</text>
<text text-anchor="start" x="742.5" y="-133.7" font-family="Helvetica,sans-Serif" font-size="14.00">value = [55, 8]</text>
<text text-anchor="start" x="728.62" y="-117.2" font-family="Helvetica,sans-Serif" font-size="14.00">class = After 1980</text>
</g>
<!-- 8&#45;&gt;9 -->
<g id="edge9" class="edge">
<title>8&#45;&gt;9</title>
<path fill="none" stroke="black" d="M786.75,-236.15C786.75,-228.47 786.75,-220.39 786.75,-212.44"/>
<polygon fill="black" stroke="black" points="790.25,-212.47 786.75,-202.47 783.25,-212.47 790.25,-212.47"/>
</g>
<!-- 12 -->
<g id="node13" class="node">
<title>12</title>
<path fill="#45a3e7" stroke="black" d="M1083.25,-200.5C1083.25,-200.5 962.25,-200.5 962.25,-200.5 956.25,-200.5 950.25,-194.5 950.25,-188.5 950.25,-188.5 950.25,-122 950.25,-122 950.25,-116 956.25,-110 962.25,-110 962.25,-110 1083.25,-110 1083.25,-110 1089.25,-110 1095.25,-116 1095.25,-122 1095.25,-122 1095.25,-188.5 1095.25,-188.5 1095.25,-194.5 1089.25,-200.5 1083.25,-200.5"/>
<text text-anchor="start" x="968.75" y="-183.2" font-family="Helvetica,sans-Serif" font-size="14.00">gartype_Att ≤ 0.5</text>
<text text-anchor="start" x="985.62" y="-166.7" font-family="Helvetica,sans-Serif" font-size="14.00">gini = 0.109</text>
<text text-anchor="start" x="971.38" y="-150.2" font-family="Helvetica,sans-Serif" font-size="14.00">samples = 5617</text>
<text text-anchor="start" x="962" y="-133.7" font-family="Helvetica,sans-Serif" font-size="14.00">value = [326, 5291]</text>
<text text-anchor="start" x="958.25" y="-117.2" font-family="Helvetica,sans-Serif" font-size="14.00">class = Before 1980</text>
</g>
<!-- 8&#45;&gt;12 -->
<g id="edge12" class="edge">
<title>8&#45;&gt;12</title>
<path fill="none" stroke="black" d="M859.48,-242.38C884.94,-228.95 913.72,-213.77 939.94,-199.94"/>
<polygon fill="black" stroke="black" points="941.3,-203.18 948.51,-195.41 938.03,-196.98 941.3,-203.18"/>
</g>
<!-- 10 -->
<g id="node11" class="node">
<title>10</title>
<path fill="#aad5f4" stroke="black" d="M769.25,-74C769.25,-74 648.25,-74 648.25,-74 642.25,-74 636.25,-68 636.25,-62 636.25,-62 636.25,-12 636.25,-12 636.25,-6 642.25,0 648.25,0 648.25,0 769.25,0 769.25,0 775.25,0 781.25,-6 781.25,-12 781.25,-12 781.25,-62 781.25,-62 781.25,-68 775.25,-74 769.25,-74"/>
<text text-anchor="start" x="671.62" y="-56.7" font-family="Helvetica,sans-Serif" font-size="14.00">gini = 0.463</text>
<text text-anchor="start" x="665.62" y="-40.2" font-family="Helvetica,sans-Serif" font-size="14.00">samples = 11</text>
<text text-anchor="start" x="668.62" y="-23.7" font-family="Helvetica,sans-Serif" font-size="14.00">value = [4, 7]</text>
<text text-anchor="start" x="644.25" y="-7.2" font-family="Helvetica,sans-Serif" font-size="14.00">class = Before 1980</text>
</g>
<!-- 9&#45;&gt;10 -->
<g id="edge10" class="edge">
<title>9&#45;&gt;10</title>
<path fill="none" stroke="black" d="M756.82,-109.64C751.14,-101.17 745.18,-92.3 739.48,-83.8"/>
<polygon fill="black" stroke="black" points="742.49,-82 734.01,-75.65 736.68,-85.9 742.49,-82"/>
</g>
<!-- 11 -->
<g id="node12" class="node">
<title>11</title>
<path fill="#e6833d" stroke="black" d="M919.88,-74C919.88,-74 811.62,-74 811.62,-74 805.62,-74 799.62,-68 799.62,-62 799.62,-62 799.62,-12 799.62,-12 799.62,-6 805.62,0 811.62,0 811.62,0 919.88,0 919.88,0 925.88,0 931.88,-6 931.88,-12 931.88,-12 931.88,-62 931.88,-62 931.88,-68 925.88,-74 919.88,-74"/>
<text text-anchor="start" x="828.62" y="-56.7" font-family="Helvetica,sans-Serif" font-size="14.00">gini = 0.038</text>
<text text-anchor="start" x="822.62" y="-40.2" font-family="Helvetica,sans-Serif" font-size="14.00">samples = 52</text>
<text text-anchor="start" x="821.5" y="-23.7" font-family="Helvetica,sans-Serif" font-size="14.00">value = [51, 1]</text>
<text text-anchor="start" x="807.62" y="-7.2" font-family="Helvetica,sans-Serif" font-size="14.00">class = After 1980</text>
</g>
<!-- 9&#45;&gt;11 -->
<g id="edge11" class="edge">
<title>9&#45;&gt;11</title>
<path fill="none" stroke="black" d="M817.07,-109.64C822.82,-101.17 828.85,-92.3 834.63,-83.8"/>
<polygon fill="black" stroke="black" points="837.44,-85.88 840.17,-75.65 831.65,-81.95 837.44,-85.88"/>
</g>
<!-- 13 -->
<g id="node14" class="node">
<title>13</title>
<path fill="#3b9ee5" stroke="black" d="M1083.25,-74C1083.25,-74 962.25,-74 962.25,-74 956.25,-74 950.25,-68 950.25,-62 950.25,-62 950.25,-12 950.25,-12 950.25,-6 956.25,0 962.25,0 962.25,0 1083.25,0 1083.25,0 1089.25,0 1095.25,-6 1095.25,-12 1095.25,-12 1095.25,-62 1095.25,-62 1095.25,-68 1089.25,-74 1083.25,-74"/>
<text text-anchor="start" x="985.62" y="-56.7" font-family="Helvetica,sans-Serif" font-size="14.00">gini = 0.022</text>
<text text-anchor="start" x="971.38" y="-40.2" font-family="Helvetica,sans-Serif" font-size="14.00">samples = 3831</text>
<text text-anchor="start" x="966.12" y="-23.7" font-family="Helvetica,sans-Serif" font-size="14.00">value = [43, 3788]</text>
<text text-anchor="start" x="958.25" y="-7.2" font-family="Helvetica,sans-Serif" font-size="14.00">class = Before 1980</text>
</g>
<!-- 12&#45;&gt;13 -->
<g id="edge13" class="edge">
<title>12&#45;&gt;13</title>
<path fill="none" stroke="black" d="M1022.75,-109.64C1022.75,-101.81 1022.75,-93.63 1022.75,-85.72"/>
<polygon fill="black" stroke="black" points="1026.25,-85.91 1022.75,-75.91 1019.25,-85.91 1026.25,-85.91"/>
</g>
<!-- 14 -->
<g id="node15" class="node">
<title>14</title>
<path fill="#5eafea" stroke="black" d="M1246.25,-74C1246.25,-74 1125.25,-74 1125.25,-74 1119.25,-74 1113.25,-68 1113.25,-62 1113.25,-62 1113.25,-12 1113.25,-12 1113.25,-6 1119.25,0 1125.25,0 1125.25,0 1246.25,0 1246.25,0 1252.25,0 1258.25,-6 1258.25,-12 1258.25,-12 1258.25,-62 1258.25,-62 1258.25,-68 1252.25,-74 1246.25,-74"/>
<text text-anchor="start" x="1148.62" y="-56.7" font-family="Helvetica,sans-Serif" font-size="14.00">gini = 0.267</text>
<text text-anchor="start" x="1134.38" y="-40.2" font-family="Helvetica,sans-Serif" font-size="14.00">samples = 1786</text>
<text text-anchor="start" x="1125" y="-23.7" font-family="Helvetica,sans-Serif" font-size="14.00">value = [283, 1503]</text>
<text text-anchor="start" x="1121.25" y="-7.2" font-family="Helvetica,sans-Serif" font-size="14.00">class = Before 1980</text>
</g>
<!-- 12&#45;&gt;14 -->
<g id="edge14" class="edge">
<title>12&#45;&gt;14</title>
<path fill="none" stroke="black" d="M1085.3,-109.64C1098.45,-100.26 1112.3,-90.39 1125.36,-81.07"/>
<polygon fill="black" stroke="black" points="1127.38,-83.93 1133.49,-75.27 1123.31,-78.23 1127.38,-83.93"/>
</g>
</g>
</svg>
