<?xml version="1.0" encoding="UTF-8" standalone="no"?>
<!DOCTYPE svg PUBLIC "-//W3C//DTD SVG 1.1//EN"
 "http://www.w3.org/Graphics/SVG/1.1/DTD/svg11.dtd">
<!-- Generated by graphviz version 10.0.1 (20240210.2158)
 -->
<!-- Title: Tree Pages: 1 -->
<svg width="1284pt" height="462pt"
 viewBox="0.00 0.00 1283.75 461.50" xmlns="http://www.w3.org/2000/svg" xmlns:xlink="http://www.w3.org/1999/xlink">
<g id="graph0" class="graph" transform="scale(1 1) rotate(0) translate(4 457.5)">
<title>Tree</title>
<polygon fill="white" stroke="none" points="-4,4 -4,-457.5 1279.75,-457.5 1279.75,4 -4,4"/>
<!-- 0 -->
<g id="node1" class="node">
<title>0</title>
<path fill="#f7fbfe" stroke="black" d="M663.75,-453.5C663.75,-453.5 545,-453.5 545,-453.5 539,-453.5 533,-447.5 533,-441.5 533,-441.5 533,-375 533,-375 533,-369 539,-363 545,-363 545,-363 663.75,-363 663.75,-363 669.75,-363 675.75,-369 675.75,-375 675.75,-375 675.75,-441.5 675.75,-441.5 675.75,-447.5 669.75,-453.5 663.75,-453.5"/>
<text text-anchor="start" x="555.25" y="-436.2" font-family="Helvetica,sans-Serif" font-size="14.00">Education ≤ 3.5</text>
<text text-anchor="start" x="575.5" y="-419.7" font-family="Helvetica,sans-Serif" font-size="14.00">gini = 0.5</text>
<text text-anchor="start" x="557.12" y="-403.2" font-family="Helvetica,sans-Serif" font-size="14.00">samples = 551</text>
<text text-anchor="start" x="547.75" y="-386.7" font-family="Helvetica,sans-Serif" font-size="14.00">value = [270, 281]</text>
<text text-anchor="start" x="541" y="-370.2" font-family="Helvetica,sans-Serif" font-size="14.00">class = Low Income</text>
</g>
<!-- 1 -->
<g id="node2" class="node">
<title>1</title>
<path fill="#f6d2b8" stroke="black" d="M572.88,-327C572.88,-327 451.88,-327 451.88,-327 445.88,-327 439.88,-321 439.88,-315 439.88,-315 439.88,-248.5 439.88,-248.5 439.88,-242.5 445.88,-236.5 451.88,-236.5 451.88,-236.5 572.88,-236.5 572.88,-236.5 578.88,-236.5 584.88,-242.5 584.88,-248.5 584.88,-248.5 584.88,-315 584.88,-315 584.88,-321 578.88,-327 572.88,-327"/>
<text text-anchor="start" x="481.62" y="-309.7" font-family="Helvetica,sans-Serif" font-size="14.00">Age ≤ 1.5</text>
<text text-anchor="start" x="475.25" y="-293.2" font-family="Helvetica,sans-Serif" font-size="14.00">gini = 0.476</text>
<text text-anchor="start" x="465.12" y="-276.7" font-family="Helvetica,sans-Serif" font-size="14.00">samples = 238</text>
<text text-anchor="start" x="459.88" y="-260.2" font-family="Helvetica,sans-Serif" font-size="14.00">value = [145, 93]</text>
<text text-anchor="start" x="447.88" y="-243.7" font-family="Helvetica,sans-Serif" font-size="14.00">class = High Income</text>
</g>
<!-- 0&#45;&gt;1 -->
<g id="edge1" class="edge">
<title>0&#45;&gt;1</title>
<path fill="none" stroke="black" d="M571.42,-362.65C565.14,-354.16 558.52,-345.19 552.06,-336.45"/>
<polygon fill="black" stroke="black" points="555.07,-334.63 546.31,-328.67 549.44,-338.79 555.07,-334.63"/>
<text text-anchor="middle" x="541.7" y="-347.13" font-family="Helvetica,sans-Serif" font-size="14.00">True</text>
</g>
<!-- 8 -->
<g id="node9" class="node">
<title>8</title>
<path fill="#bddef6" stroke="black" d="M817.75,-327C817.75,-327 693,-327 693,-327 687,-327 681,-321 681,-315 681,-315 681,-248.5 681,-248.5 681,-242.5 687,-236.5 693,-236.5 693,-236.5 817.75,-236.5 817.75,-236.5 823.75,-236.5 829.75,-242.5 829.75,-248.5 829.75,-248.5 829.75,-315 829.75,-315 829.75,-321 823.75,-327 817.75,-327"/>
<text text-anchor="start" x="689" y="-309.7" font-family="Helvetica,sans-Serif" font-size="14.00">Luke Skywalker ≤ 5.5</text>
<text text-anchor="start" x="722.38" y="-293.2" font-family="Helvetica,sans-Serif" font-size="14.00">gini = 0.48</text>
<text text-anchor="start" x="708.12" y="-276.7" font-family="Helvetica,sans-Serif" font-size="14.00">samples = 313</text>
<text text-anchor="start" x="698.75" y="-260.2" font-family="Helvetica,sans-Serif" font-size="14.00">value = [125, 188]</text>
<text text-anchor="start" x="692" y="-243.7" font-family="Helvetica,sans-Serif" font-size="14.00">class = Low Income</text>
</g>
<!-- 0&#45;&gt;8 -->
<g id="edge8" class="edge">
<title>0&#45;&gt;8</title>
<path fill="none" stroke="black" d="M658.46,-362.65C669.52,-353.54 681.25,-343.87 692.58,-334.52"/>
<polygon fill="black" stroke="black" points="694.5,-337.48 699.99,-328.42 690.05,-332.08 694.5,-337.48"/>
<text text-anchor="middle" x="698.76" y="-347.29" font-family="Helvetica,sans-Serif" font-size="14.00">False</text>
</g>
<!-- 2 -->
<g id="node3" class="node">
<title>2</title>
<path fill="#edaa79" stroke="black" d="M293.88,-200.5C293.88,-200.5 172.88,-200.5 172.88,-200.5 166.88,-200.5 160.88,-194.5 160.88,-188.5 160.88,-188.5 160.88,-122 160.88,-122 160.88,-116 166.88,-110 172.88,-110 172.88,-110 293.88,-110 293.88,-110 299.88,-110 305.88,-116 305.88,-122 305.88,-122 305.88,-188.5 305.88,-188.5 305.88,-194.5 299.88,-200.5 293.88,-200.5"/>
<text text-anchor="start" x="175.25" y="-183.2" font-family="Helvetica,sans-Serif" font-size="14.00">Jar Jar Binks ≤ 1.5</text>
<text text-anchor="start" x="196.25" y="-166.7" font-family="Helvetica,sans-Serif" font-size="14.00">gini = 0.369</text>
<text text-anchor="start" x="190.25" y="-150.2" font-family="Helvetica,sans-Serif" font-size="14.00">samples = 78</text>
<text text-anchor="start" x="185" y="-133.7" font-family="Helvetica,sans-Serif" font-size="14.00">value = [59, 19]</text>
<text text-anchor="start" x="168.88" y="-117.2" font-family="Helvetica,sans-Serif" font-size="14.00">class = High Income</text>
</g>
<!-- 1&#45;&gt;2 -->
<g id="edge2" class="edge">
<title>1&#45;&gt;2</title>
<path fill="none" stroke="black" d="M439.44,-248.2C401.79,-231.4 355.7,-210.83 316.66,-193.41"/>
<polygon fill="black" stroke="black" points="318.31,-190.32 307.76,-189.44 315.46,-196.71 318.31,-190.32"/>
</g>
<!-- 5 -->
<g id="node6" class="node">
<title>5</title>
<path fill="#fbede3" stroke="black" d="M594.25,-200.5C594.25,-200.5 430.5,-200.5 430.5,-200.5 424.5,-200.5 418.5,-194.5 418.5,-188.5 418.5,-188.5 418.5,-122 418.5,-122 418.5,-116 424.5,-110 430.5,-110 430.5,-110 594.25,-110 594.25,-110 600.25,-110 606.25,-116 606.25,-122 606.25,-122 606.25,-188.5 606.25,-188.5 606.25,-194.5 600.25,-200.5 594.25,-200.5"/>
<text text-anchor="start" x="426.5" y="-183.2" font-family="Helvetica,sans-Serif" font-size="14.00">Princess Leia Organa ≤ 5.5</text>
<text text-anchor="start" x="475.25" y="-166.7" font-family="Helvetica,sans-Serif" font-size="14.00">gini = 0.497</text>
<text text-anchor="start" x="465.12" y="-150.2" font-family="Helvetica,sans-Serif" font-size="14.00">samples = 160</text>
<text text-anchor="start" x="464" y="-133.7" font-family="Helvetica,sans-Serif" font-size="14.00">value = [86, 74]</text>
<text text-anchor="start" x="447.88" y="-117.2" font-family="Helvetica,sans-Serif" font-size="14.00">class = High Income</text>
</g>
<!-- 1&#45;&gt;5 -->
<g id="edge5" class="edge">
<title>1&#45;&gt;5</title>
<path fill="none" stroke="black" d="M512.38,-236.15C512.38,-228.47 512.38,-220.39 512.38,-212.44"/>
<polygon fill="black" stroke="black" points="515.88,-212.47 512.38,-202.47 508.88,-212.47 515.88,-212.47"/>
</g>
<!-- 3 -->
<g id="node4" class="node">
<title>3</title>
<path fill="#88c4ef" stroke="black" d="M130.75,-74C130.75,-74 12,-74 12,-74 6,-74 0,-68 0,-62 0,-62 0,-12 0,-12 0,-6 6,0 12,0 12,0 130.75,0 130.75,0 136.75,0 142.75,-6 142.75,-12 142.75,-12 142.75,-62 142.75,-62 142.75,-68 136.75,-74 130.75,-74"/>
<text text-anchor="start" x="34.25" y="-56.7" font-family="Helvetica,sans-Serif" font-size="14.00">gini = 0.408</text>
<text text-anchor="start" x="32.38" y="-40.2" font-family="Helvetica,sans-Serif" font-size="14.00">samples = 7</text>
<text text-anchor="start" x="31.25" y="-23.7" font-family="Helvetica,sans-Serif" font-size="14.00">value = [2, 5]</text>
<text text-anchor="start" x="8" y="-7.2" font-family="Helvetica,sans-Serif" font-size="14.00">class = Low Income</text>
</g>
<!-- 2&#45;&gt;3 -->
<g id="edge3" class="edge">
<title>2&#45;&gt;3</title>
<path fill="none" stroke="black" d="M171.2,-109.64C158.14,-100.26 144.38,-90.39 131.39,-81.07"/>
<polygon fill="black" stroke="black" points="133.49,-78.26 123.32,-75.28 129.4,-83.95 133.49,-78.26"/>
</g>
<!-- 4 -->
<g id="node5" class="node">
<title>4</title>
<path fill="#eba06a" stroke="black" d="M293.88,-74C293.88,-74 172.88,-74 172.88,-74 166.88,-74 160.88,-68 160.88,-62 160.88,-62 160.88,-12 160.88,-12 160.88,-6 166.88,0 172.88,0 172.88,0 293.88,0 293.88,0 299.88,0 305.88,-6 305.88,-12 305.88,-12 305.88,-62 305.88,-62 305.88,-68 299.88,-74 293.88,-74"/>
<text text-anchor="start" x="196.25" y="-56.7" font-family="Helvetica,sans-Serif" font-size="14.00">gini = 0.317</text>
<text text-anchor="start" x="190.25" y="-40.2" font-family="Helvetica,sans-Serif" font-size="14.00">samples = 71</text>
<text text-anchor="start" x="185" y="-23.7" font-family="Helvetica,sans-Serif" font-size="14.00">value = [57, 14]</text>
<text text-anchor="start" x="168.88" y="-7.2" font-family="Helvetica,sans-Serif" font-size="14.00">class = High Income</text>
</g>
<!-- 2&#45;&gt;4 -->
<g id="edge4" class="edge">
<title>2&#45;&gt;4</title>
<path fill="none" stroke="black" d="M233.38,-109.64C233.38,-101.81 233.38,-93.63 233.38,-85.72"/>
<polygon fill="black" stroke="black" points="236.88,-85.91 233.38,-75.91 229.88,-85.91 236.88,-85.91"/>
</g>
<!-- 6 -->
<g id="node7" class="node">
<title>6</title>
<path fill="#f0b990" stroke="black" d="M456.88,-74C456.88,-74 335.88,-74 335.88,-74 329.88,-74 323.88,-68 323.88,-62 323.88,-62 323.88,-12 323.88,-12 323.88,-6 329.88,0 335.88,0 335.88,0 456.88,0 456.88,0 462.88,0 468.88,-6 468.88,-12 468.88,-12 468.88,-62 468.88,-62 468.88,-68 462.88,-74 456.88,-74"/>
<text text-anchor="start" x="359.25" y="-56.7" font-family="Helvetica,sans-Serif" font-size="14.00">gini = 0.425</text>
<text text-anchor="start" x="353.25" y="-40.2" font-family="Helvetica,sans-Serif" font-size="14.00">samples = 49</text>
<text text-anchor="start" x="348" y="-23.7" font-family="Helvetica,sans-Serif" font-size="14.00">value = [34, 15]</text>
<text text-anchor="start" x="331.88" y="-7.2" font-family="Helvetica,sans-Serif" font-size="14.00">class = High Income</text>
</g>
<!-- 5&#45;&gt;6 -->
<g id="edge6" class="edge">
<title>5&#45;&gt;6</title>
<path fill="none" stroke="black" d="M467.86,-109.64C458.96,-100.72 449.6,-91.34 440.71,-82.43"/>
<polygon fill="black" stroke="black" points="443.3,-80.07 433.76,-75.46 438.35,-85.02 443.3,-80.07"/>
</g>
<!-- 7 -->
<g id="node8" class="node">
<title>7</title>
<path fill="#e8f3fc" stroke="black" d="M617.75,-74C617.75,-74 499,-74 499,-74 493,-74 487,-68 487,-62 487,-62 487,-12 487,-12 487,-6 493,0 499,0 499,0 617.75,0 617.75,0 623.75,0 629.75,-6 629.75,-12 629.75,-12 629.75,-62 629.75,-62 629.75,-68 623.75,-74 617.75,-74"/>
<text text-anchor="start" x="521.25" y="-56.7" font-family="Helvetica,sans-Serif" font-size="14.00">gini = 0.498</text>
<text text-anchor="start" x="511.12" y="-40.2" font-family="Helvetica,sans-Serif" font-size="14.00">samples = 111</text>
<text text-anchor="start" x="510" y="-23.7" font-family="Helvetica,sans-Serif" font-size="14.00">value = [52, 59]</text>
<text text-anchor="start" x="495" y="-7.2" font-family="Helvetica,sans-Serif" font-size="14.00">class = Low Income</text>
</g>
<!-- 5&#45;&gt;7 -->
<g id="edge7" class="edge">
<title>5&#45;&gt;7</title>
<path fill="none" stroke="black" d="M530.03,-109.64C533.23,-101.53 536.59,-93.06 539.82,-84.89"/>
<polygon fill="black" stroke="black" points="542.99,-86.39 543.42,-75.8 536.48,-83.81 542.99,-86.39"/>
</g>
<!-- 9 -->
<g id="node10" class="node">
<title>9</title>
<path fill="#ffffff" stroke="black" d="M815.88,-200.5C815.88,-200.5 694.88,-200.5 694.88,-200.5 688.88,-200.5 682.88,-194.5 682.88,-188.5 682.88,-188.5 682.88,-122 682.88,-122 682.88,-116 688.88,-110 694.88,-110 694.88,-110 815.88,-110 815.88,-110 821.88,-110 827.88,-116 827.88,-122 827.88,-122 827.88,-188.5 827.88,-188.5 827.88,-194.5 821.88,-200.5 815.88,-200.5"/>
<text text-anchor="start" x="721.25" y="-183.2" font-family="Helvetica,sans-Serif" font-size="14.00">Yoda ≤ 5.5</text>
<text text-anchor="start" x="726.5" y="-166.7" font-family="Helvetica,sans-Serif" font-size="14.00">gini = 0.5</text>
<text text-anchor="start" x="708.12" y="-150.2" font-family="Helvetica,sans-Serif" font-size="14.00">samples = 108</text>
<text text-anchor="start" x="707" y="-133.7" font-family="Helvetica,sans-Serif" font-size="14.00">value = [54, 54]</text>
<text text-anchor="start" x="690.88" y="-117.2" font-family="Helvetica,sans-Serif" font-size="14.00">class = High Income</text>
</g>
<!-- 8&#45;&gt;9 -->
<g id="edge9" class="edge">
<title>8&#45;&gt;9</title>
<path fill="none" stroke="black" d="M755.38,-236.15C755.38,-228.47 755.38,-220.39 755.38,-212.44"/>
<polygon fill="black" stroke="black" points="758.88,-212.47 755.38,-202.47 751.88,-212.47 758.88,-212.47"/>
</g>
<!-- 12 -->
<g id="node13" class="node">
<title>12</title>
<path fill="#a2d1f3" stroke="black" d="M1191.62,-200.5C1191.62,-200.5 895.12,-200.5 895.12,-200.5 889.12,-200.5 883.12,-194.5 883.12,-188.5 883.12,-188.5 883.12,-122 883.12,-122 883.12,-116 889.12,-110 895.12,-110 895.12,-110 1191.62,-110 1191.62,-110 1197.62,-110 1203.62,-116 1203.62,-122 1203.62,-122 1203.62,-188.5 1203.62,-188.5 1203.62,-194.5 1197.62,-200.5 1191.62,-200.5"/>
<text text-anchor="start" x="891.12" y="-183.2" font-family="Helvetica,sans-Serif" font-size="14.00">Rank_Star Wars: Episode IV &#160;A New Hope ≤ 2.5</text>
<text text-anchor="start" x="1006.25" y="-166.7" font-family="Helvetica,sans-Serif" font-size="14.00">gini = 0.453</text>
<text text-anchor="start" x="996.12" y="-150.2" font-family="Helvetica,sans-Serif" font-size="14.00">samples = 205</text>
<text text-anchor="start" x="990.88" y="-133.7" font-family="Helvetica,sans-Serif" font-size="14.00">value = [71, 134]</text>
<text text-anchor="start" x="980" y="-117.2" font-family="Helvetica,sans-Serif" font-size="14.00">class = Low Income</text>
</g>
<!-- 8&#45;&gt;12 -->
<g id="edge12" class="edge">
<title>8&#45;&gt;12</title>
<path fill="none" stroke="black" d="M829.92,-248.53C860.28,-235.4 896.05,-219.94 929.55,-205.46"/>
<polygon fill="black" stroke="black" points="930.68,-208.78 938.47,-201.6 927.9,-202.35 930.68,-208.78"/>
</g>
<!-- 10 -->
<g id="node11" class="node">
<title>10</title>
<path fill="#a2d1f3" stroke="black" d="M778.75,-74C778.75,-74 660,-74 660,-74 654,-74 648,-68 648,-62 648,-62 648,-12 648,-12 648,-6 654,0 660,0 660,0 778.75,0 778.75,0 784.75,0 790.75,-6 790.75,-12 790.75,-12 790.75,-62 790.75,-62 790.75,-68 784.75,-74 778.75,-74"/>
<text text-anchor="start" x="682.25" y="-56.7" font-family="Helvetica,sans-Serif" font-size="14.00">gini = 0.453</text>
<text text-anchor="start" x="676.25" y="-40.2" font-family="Helvetica,sans-Serif" font-size="14.00">samples = 52</text>
<text text-anchor="start" x="671" y="-23.7" font-family="Helvetica,sans-Serif" font-size="14.00">value = [18, 34]</text>
<text text-anchor="start" x="656" y="-7.2" font-family="Helvetica,sans-Serif" font-size="14.00">class = Low Income</text>
</g>
<!-- 9&#45;&gt;10 -->
<g id="edge10" class="edge">
<title>9&#45;&gt;10</title>
<path fill="none" stroke="black" d="M741.56,-109.64C739.08,-101.63 736.49,-93.25 733.98,-85.17"/>
<polygon fill="black" stroke="black" points="737.39,-84.36 731.09,-75.84 730.71,-86.43 737.39,-84.36"/>
</g>
<!-- 11 -->
<g id="node12" class="node">
<title>11</title>
<path fill="#f3c7a7" stroke="black" d="M941.88,-74C941.88,-74 820.88,-74 820.88,-74 814.88,-74 808.88,-68 808.88,-62 808.88,-62 808.88,-12 808.88,-12 808.88,-6 814.88,0 820.88,0 820.88,0 941.88,0 941.88,0 947.88,0 953.88,-6 953.88,-12 953.88,-12 953.88,-62 953.88,-62 953.88,-68 947.88,-74 941.88,-74"/>
<text text-anchor="start" x="844.25" y="-56.7" font-family="Helvetica,sans-Serif" font-size="14.00">gini = 0.459</text>
<text text-anchor="start" x="838.25" y="-40.2" font-family="Helvetica,sans-Serif" font-size="14.00">samples = 56</text>
<text text-anchor="start" x="833" y="-23.7" font-family="Helvetica,sans-Serif" font-size="14.00">value = [36, 20]</text>
<text text-anchor="start" x="816.88" y="-7.2" font-family="Helvetica,sans-Serif" font-size="14.00">class = High Income</text>
</g>
<!-- 9&#45;&gt;11 -->
<g id="edge11" class="edge">
<title>9&#45;&gt;11</title>
<path fill="none" stroke="black" d="M803.73,-109.64C813.5,-100.62 823.77,-91.15 833.52,-82.15"/>
<polygon fill="black" stroke="black" points="835.84,-84.77 840.82,-75.42 831.09,-79.63 835.84,-84.77"/>
</g>
<!-- 13 -->
<g id="node14" class="node">
<title>13</title>
<path fill="#7ebfee" stroke="black" d="M1102.75,-74C1102.75,-74 984,-74 984,-74 978,-74 972,-68 972,-62 972,-62 972,-12 972,-12 972,-6 978,0 984,0 984,0 1102.75,0 1102.75,0 1108.75,0 1114.75,-6 1114.75,-12 1114.75,-12 1114.75,-62 1114.75,-62 1114.75,-68 1108.75,-74 1102.75,-74"/>
<text text-anchor="start" x="1006.25" y="-56.7" font-family="Helvetica,sans-Serif" font-size="14.00">gini = 0.382</text>
<text text-anchor="start" x="996.12" y="-40.2" font-family="Helvetica,sans-Serif" font-size="14.00">samples = 101</text>
<text text-anchor="start" x="995" y="-23.7" font-family="Helvetica,sans-Serif" font-size="14.00">value = [26, 75]</text>
<text text-anchor="start" x="980" y="-7.2" font-family="Helvetica,sans-Serif" font-size="14.00">class = Low Income</text>
</g>
<!-- 12&#45;&gt;13 -->
<g id="edge13" class="edge">
<title>12&#45;&gt;13</title>
<path fill="none" stroke="black" d="M1043.38,-109.64C1043.38,-101.81 1043.38,-93.63 1043.38,-85.72"/>
<polygon fill="black" stroke="black" points="1046.88,-85.91 1043.38,-75.91 1039.88,-85.91 1046.88,-85.91"/>
</g>
<!-- 14 -->
<g id="node15" class="node">
<title>14</title>
<path fill="#d0e8f9" stroke="black" d="M1263.75,-74C1263.75,-74 1145,-74 1145,-74 1139,-74 1133,-68 1133,-62 1133,-62 1133,-12 1133,-12 1133,-6 1139,0 1145,0 1145,0 1263.75,0 1263.75,0 1269.75,0 1275.75,-6 1275.75,-12 1275.75,-12 1275.75,-62 1275.75,-62 1275.75,-68 1269.75,-74 1263.75,-74"/>
<text text-anchor="start" x="1167.25" y="-56.7" font-family="Helvetica,sans-Serif" font-size="14.00">gini = 0.491</text>
<text text-anchor="start" x="1157.12" y="-40.2" font-family="Helvetica,sans-Serif" font-size="14.00">samples = 104</text>
<text text-anchor="start" x="1156" y="-23.7" font-family="Helvetica,sans-Serif" font-size="14.00">value = [45, 59]</text>
<text text-anchor="start" x="1141" y="-7.2" font-family="Helvetica,sans-Serif" font-size="14.00">class = Low Income</text>
</g>
<!-- 12&#45;&gt;14 -->
<g id="edge14" class="edge">
<title>12&#45;&gt;14</title>
<path fill="none" stroke="black" d="M1105.16,-109.64C1118.15,-100.26 1131.82,-90.39 1144.73,-81.07"/>
<polygon fill="black" stroke="black" points="1146.69,-83.97 1152.74,-75.28 1142.59,-78.3 1146.69,-83.97"/>
</g>
</g>
</svg>
